<svg xmlns="http://www.w3.org/2000/svg" xmlns:xlink="http://www.w3.org/1999/xlink" width="2094" height="1080" viewBox="0 0 2094 1080"><defs><style>.a,.b,.v{fill:none;}.a{clip-rule:evenodd;}.c{clip-path:url(#g);}.d{fill:#3518fc;}.e,.f,.i{fill:rgba(255,255,255,0.95);}.e{font-size:32px;}.e,.h,.j{font-family:SegoeUI, Segoe UI;}.f,.h,.j{font-size:22px;}.f{font-family:SegoeUI-Light, Segoe UI;font-weight:300;}.g,.s,.t{fill:#fff;}.g{opacity:0.21;}.h{fill:rgba(254,254,254,0.85);}.k{fill:#f2f2f2;}.l{fill:#e6e6e6;}.m{fill:#3f3d56;}.n{fill:#2f2e41;}.o{fill:#ffb6b6;}.p{fill:#6c63ff;}.q{fill:#cacaca;}.r{fill:#ff6584;}.t{opacity:0;}.u{clip-path:url(#a);}.v{stroke:rgba(0,0,0,0.35);stroke-width:2px;}.w{clip-path:url(#b);}.x{fill:rgba(0,0,0,0.4);}.y{clip-path:url(#c);}.z{clip-path:url(#d);}.aa{clip-path:url(#e);}</style><clipPath id="a"><path class="a" d="M338.667-26.667h16.667c1.473,0,2.667,1.473,2.667,3.289v7.4h0c0,1.817-1.194,3.289-2.667,3.289H338.667c-1.473,0-2.667-1.473-2.667-3.289v-7.4h0C336-25.194,337.194-26.667,338.667-26.667Z" transform="translate(-336 26.667)"/></clipPath><clipPath id="b"><path class="b" d="M359-23v4a2.17,2.17,0,0,0,1.328-2A2.17,2.17,0,0,0,359-23" transform="translate(-359 23)"/></clipPath><clipPath id="c"><path class="b" d="M339.333-24.667h15.333A1.333,1.333,0,0,1,356-23.333v4.667h0a1.333,1.333,0,0,1-1.333,1.333H339.333A1.333,1.333,0,0,1,338-18.667v-4.667h0A1.333,1.333,0,0,1,339.333-24.667Z" transform="translate(-338 24.667)"/></clipPath><clipPath id="d"><path class="b" d="M323.33-24.392a8.64,8.64,0,0,1,5.953,2.378.308.308,0,0,0,.433,0l1.156-1.167a.322.322,0,0,0,.093-.229.322.322,0,0,0-.1-.227,10.9,10.9,0,0,0-15.08,0,.322.322,0,0,0-.1.227.322.322,0,0,0,.093.229l1.156,1.167a.308.308,0,0,0,.433,0,8.641,8.641,0,0,1,5.954-2.378Zm0,3.8a4.907,4.907,0,0,1,3.294,1.27.31.31,0,0,0,.433-.006l1.155-1.167a.322.322,0,0,0,.094-.23.322.322,0,0,0-.1-.229,7.159,7.159,0,0,0-9.752,0,.322.322,0,0,0-.1.229.322.322,0,0,0,.094.23l1.154,1.167a.31.31,0,0,0,.433.006,4.907,4.907,0,0,1,3.292-1.27Zm2.219,2.784a.314.314,0,0,0,.094-.231.314.314,0,0,0-.1-.226,3.422,3.422,0,0,0-4.419,0,.314.314,0,0,0-.1.226.314.314,0,0,0,.094.231l2,2.016a.311.311,0,0,0,.222.093.312.312,0,0,0,.222-.093Z" transform="translate(-315.694 26.669)"/></clipPath><clipPath id="e"><path class="b" d="M294.667-19.667h1a1,1,0,0,1,1,1v2a1,1,0,0,1-1,1h-1a1,1,0,0,1-1-1v-2a1,1,0,0,1,1-1Zm4.667-2h1a1,1,0,0,1,1,1v4a1,1,0,0,1-1,1h-1a1,1,0,0,1-1-1v-4A1,1,0,0,1,299.333-21.667ZM304-24h1a1,1,0,0,1,1,1v6.333a1,1,0,0,1-1,1h-1a1,1,0,0,1-1-1V-23A1,1,0,0,1,304-24Zm4.667-2.333h1a1,1,0,0,1,1,1v8.667a1,1,0,0,1-1,1h-1a1,1,0,0,1-1-1v-8.667a1,1,0,0,1,1-1Z" transform="translate(-293.667 26.333)"/></clipPath><clipPath id="g"><rect width="2094" height="1080"/></clipPath></defs><g id="f" class="c"><rect class="s" width="2094" height="1080"/><rect class="d" width="428" height="926" transform="translate(733 77)"/><g transform="translate(723.368 103.36)"><text class="e" transform="translate(132 528)"><tspan x="0" y="0">FINGERPAY</tspan></text><text class="f" transform="translate(27 605)"><tspan x="0" y="0">Votre système de paiement fiable et </tspan><tspan x="0" y="30">sécurisé.</tspan></text><g transform="translate(-6 203)"><rect class="g" width="296" height="58" rx="4" transform="translate(72 628)"/><text class="h" transform="translate(214 665)"><tspan x="-88.397" y="0">NOUVEAU CLIENT</tspan></text></g><g transform="translate(-244 15)"><rect class="i" width="296" height="58" rx="4" transform="translate(310 689)"/><text class="j" transform="translate(458 726)"><tspan x="-75.969" y="0">SE CONNECTER</tspan></text></g><g transform="translate(10 15.787)"><path class="k" d="M581.6,750.078l-.5-11.22-.156-.082a6.894,6.894,0,0,0-9.767,8.065c1.607,5.449,2.687,11.324,5.628,16.094a21.8,21.8,0,0,0,15.984,10.073l6.793,4.159a36.524,36.524,0,0,0-7.7-29.6,35.277,35.277,0,0,0-6.484-6.024C583.771,745.835,581.6,750.078,581.6,750.078Z" transform="translate(-393.699 -330.538)"/><path class="l" d="M420.4,405.4c-13.079-13.488-32.032-21.224-52-21.224l-.77,0A74.251,74.251,0,0,1,330.2,374.066l-1.182-.689.952-.981a72.373,72.373,0,0,0,12.763-18.07,21.885,21.885,0,0,1-17.662,5.706A22.409,22.409,0,0,1,308.621,349.5c-6.979-11.323-15.3-27.39-15.3-39.63a74.477,74.477,0,0,1,24.3-54.957,46.378,46.378,0,0,0,15.321-34.581l0-.927a105.219,105.219,0,0,1,3.126-25.469l.207-.825.865.03a71.108,71.108,0,0,0,16.627-1.393,56.125,56.125,0,0,1-14.912-3.966l-.931-.376.316-.954c21.769-13.479,70.908-6.5,99.429-71.754C460.793,61.779,542.394,161.663,542.394,219.4c0,5.891-5.83,13.676-1.466,17.57,47.181,42.093,14.627,69.122,4.363,96.32-2.435,6.453,2.845,13.537,2.845,20.519,0,1.185-.03,2.407-.09,3.634l-.091,1.886-1.573-1.047a52.1,52.1,0,0,1-8.6-7.058,45.41,45.41,0,0,1-1.44,39.2c-4.945,9.332-9.728,16.013-14.218,19.856A74.235,74.235,0,0,1,420.4,405.4Z" transform="translate(-293.324 -99.719)"/><path class="m" d="M579.733,643.359a1.336,1.336,0,0,0,1.321-1.148c.057-.4,5.618-40.507.623-93.811-4.612-49.228-19.425-120.134-63.8-178.368a1.336,1.336,0,0,0-2.126,1.62c43.989,57.731,58.683,128.117,63.262,177,4.966,52.995-.552,92.789-.608,93.185a1.337,1.337,0,0,0,1.325,1.525Z" transform="translate(-373.663 -197.284)"/><path class="m" d="M484.36,480.162a1.336,1.336,0,0,0,.787-2.417,184.192,184.192,0,0,0-40.662-20.7c-22.434-8.213-56.548-15.659-91.667-4.482a1.336,1.336,0,0,0,.81,2.547c34.4-10.948,67.9-3.625,89.938,4.445a181.158,181.158,0,0,1,40.009,20.351,1.332,1.332,0,0,0,.784.255Z" transform="translate(-314.502 -225.272)"/><path class="m" d="M632.39,259.561a1.336,1.336,0,0,0-2.354-.959,184.186,184.186,0,0,0-23.573,39.065c-9.807,21.784-19.691,55.273-11.071,91.107a1.336,1.336,0,1,0,2.6-.625c-8.442-35.1,1.274-67.98,10.91-89.384a181.155,181.155,0,0,1,23.179-38.44A1.33,1.33,0,0,0,632.39,259.561Z" transform="translate(-401.368 -157.005)"/><path class="n" d="M652.293,358.863c1.128,9.1,7.431,16.6,16.6,16.6a16.6,16.6,0,0,0,16.6-16.6c0-9.167-7.47-15.75-16.6-16.6C659.207,341.366,650.846,347.184,652.293,358.863Z" transform="translate(-423.081 -187.4)"/><path class="o" d="M397.1,673.517h6.32l3.007-24.379H397.1Z" transform="translate(-143.607 -234.751)"/><path class="n" d="M690.081,791.425h19.436v-.246a7.565,7.565,0,0,0-7.565-7.565h0l-3.55-2.693-6.624,2.694h-1.7Z" transform="translate(-436.805 -346.066)"/><path class="o" d="M358.1,673.517h6.32l3.007-24.379H358.1Z" transform="translate(-129.503 -234.751)"/><path class="n" d="M651.081,791.425h19.436v-.246a7.566,7.566,0,0,0-7.565-7.565h0l-3.55-2.693-6.624,2.694h-1.7Z" transform="translate(-422.701 -346.066)"/><path class="n" d="M695.287,545.026l4.469,15.321-5.265,64.887s2.711,4.057.8,4.057-4.371.9-2.824,3.322-3.741,11.121-3.741,11.121l-7.479,46.2-9.53-.141s-4.845-2.7-2.126-5.429,4.634-2.729,2.081-5.283-2.554-1.784-2.554-3.765-2.558-26.183,3.509-35.467L670.794,602l-4.305,37.128-8.866,49.531-9.181-.076s-4.24-4.087-4.233-7.113,2.62-3.277.676-5.066-1.944-29.279,3.8-44.56c0,0,3.25-8.537-.007-11.463s0-6.273,0-6.273,5.159-1.865,0-7.238-.028-43.376-.028-43.376-5.645-15.34.072-21.372S695.287,545.026,695.287,545.026Z" transform="translate(-420.039 -258.951)"/><path class="o" d="M598.016,578.291l7.973-19.267,6.281,3.49-3.794,19.6a6.98,6.98,0,1,1-10.461-3.822Z" transform="translate(-402.356 -265.82)"/><path class="o" d="M799.51,342.858l-12.131,16.96L782.051,355l8.136-18.23a6.98,6.98,0,1,1,9.323,6.093Z" transform="translate(-470.065 -182.747)"/><path class="p" d="M681.575,478.342c7.868,12.2-31.683,27.693-46.859,21.475-2.657-1.089-11.8-4.685-5.55-9.671s-.724-5.687-.889-8.933c-.11-2.17,1.57-6.93-.183-6.726s-3.8-2.8.013-4.088.041-2.469.074-3.695c.365-13.377,10.629-34.655,10.629-34.655l-18.494,47.275s.137,8.179-2.222,5.679-2.187,5.59-2.187,5.59-3.507,2.447-1.49,3.81-2.171,5.55-2.171,5.55l-9.771-.7s.153-7.259,1.821-8.864.849-4.131.849-4.131,4.344-3.845,1.432-6.967c-3.745-4.015,9.91-71.835,14.623-71.163a17.951,17.951,0,0,1,12.819-13.694l10.554-2.906,1.874-7.435h14.86l2.588,4.886,11.3,5.1c2.128-3,3.718-6.167,12.432-7.192,0,0,23.481-21.364,22.334-23.032s2.493-5.574,2.493-5.574,3.109-1.017,1.354-1.561,1.562-1.8,1.562-1.8,3.071-.807,1.622-1.869,4.833-1.76,4.833-1.76l8.15,6.65-1.647,2.793s1,3.8-.306,2.415-1.557,2.641-1.557,2.641-.669,4.412-4.639,5.742-6.979,13.958-6.979,13.958c-9.361,12.172-20.409,21.667-33.5,27.918C686.445,419.264,681.575,478.342,681.575,478.342Z" transform="translate(-405.124 -190.697)"/><circle class="o" cx="14.718" cy="14.718" r="14.718" transform="translate(232.927 159.61)"/><path class="n" d="M657.031,362.864c.466,3.2,3.192,7.66,2.553,7.66s-5.177-13.184-.638-14.044c3.292-.624,4.028-.077,7.1-1.411l-.434.409c2.036,1.481,4.871.568,7.194-.4s5.158-1.87,7.2-.4c1.283.926,1.826,2.534,2.624,3.9s2.273,2.668,3.792,2.247a3,3,0,0,0,1.915-2.968c-.006-1.264-1.652-2.466-1.1-3.6,1.643-3.361.166-5.651-3.415-7.233q-1.953-.3-3.907-.606a11.079,11.079,0,0,1,2.451-2.464,5.6,5.6,0,0,0-1.979-2.534,6.213,6.213,0,0,0-3.537-.511l-8.075.421a14.244,14.244,0,0,0-5.835,1.136c-2.222,1.143-3.677,3.371-4.737,5.637C655.838,353.206,656.214,357.3,657.031,362.864Z" transform="translate(-424.627 -186.933)"/><path class="q" d="M561.045,799.112l144.749.2a.76.76,0,1,0,0-1.52l-144.749-.2a.76.76,0,0,0,0,1.52Z" transform="translate(-389.867 -352.095)"/><ellipse class="l" cx="3.356" cy="4.824" rx="3.356" ry="4.824" transform="matrix(0.144, -0.99, 0.99, 0.144, 108.796, 382.692)"/><ellipse class="m" cx="3.356" cy="4.824" rx="3.356" ry="4.824" transform="matrix(0.144, -0.99, 0.99, 0.144, 140.185, 379.629)"/><ellipse class="r" cx="3.356" cy="4.824" rx="3.356" ry="4.824" transform="matrix(0.144, -0.99, 0.99, 0.144, 100.201, 357.279)"/><ellipse class="l" cx="3.049" cy="2.121" rx="3.049" ry="2.121" transform="matrix(0.008, -1, 1, 0.008, 92.326, 347.955)"/><ellipse class="m" cx="3.049" cy="2.121" rx="3.049" ry="2.121" transform="matrix(0.008, -1, 1, 0.008, 87.701, 328.567)"/><ellipse class="l" cx="3.049" cy="2.121" rx="3.049" ry="2.121" transform="matrix(0.008, -1, 1, 0.008, 123.669, 362.689)"/><ellipse class="r" cx="3.049" cy="2.121" rx="3.049" ry="2.121" transform="matrix(0.008, -1, 1, 0.008, 108.501, 370.262)"/><ellipse class="m" cx="3.049" cy="2.121" rx="3.049" ry="2.121" transform="matrix(0.008, -1, 1, 0.008, 129.616, 384.26)"/><ellipse class="l" cx="3.356" cy="4.824" rx="3.356" ry="4.824" transform="matrix(0.144, -0.99, 0.99, 0.144, 350.097, 284.384)"/><ellipse class="m" cx="3.356" cy="4.824" rx="3.356" ry="4.824" transform="matrix(0.144, -0.99, 0.99, 0.144, 381.486, 281.321)"/><ellipse class="r" cx="3.356" cy="4.824" rx="3.356" ry="4.824" transform="matrix(0.144, -0.99, 0.99, 0.144, 341.502, 258.972)"/><ellipse class="l" cx="3.049" cy="2.121" rx="3.049" ry="2.121" transform="matrix(0.008, -1, 1, 0.008, 333.628, 249.648)"/><ellipse class="m" cx="3.049" cy="2.121" rx="3.049" ry="2.121" transform="matrix(0.008, -1, 1, 0.008, 329.002, 230.26)"/><ellipse class="l" cx="3.049" cy="2.121" rx="3.049" ry="2.121" transform="matrix(0.008, -1, 1, 0.008, 364.971, 264.382)"/><ellipse class="r" cx="3.049" cy="2.121" rx="3.049" ry="2.121" transform="matrix(0.008, -1, 1, 0.008, 349.802, 271.955)"/><ellipse class="m" cx="3.049" cy="2.121" rx="3.049" ry="2.121" transform="matrix(0.008, -1, 1, 0.008, 370.917, 285.953)"/><ellipse class="s" cx="3.356" cy="4.824" rx="3.356" ry="4.824" transform="matrix(0.144, -0.99, 0.99, 0.144, 233.277, 102.451)"/><ellipse class="m" cx="3.356" cy="4.824" rx="3.356" ry="4.824" transform="matrix(0.144, -0.99, 0.99, 0.144, 264.666, 99.387)"/><ellipse class="r" cx="3.356" cy="4.824" rx="3.356" ry="4.824" transform="matrix(0.144, -0.99, 0.99, 0.144, 224.682, 77.038)"/><ellipse class="l" cx="3.049" cy="2.121" rx="3.049" ry="2.121" transform="matrix(0.008, -1, 1, 0.008, 216.807, 67.714)"/><ellipse class="m" cx="3.049" cy="2.121" rx="3.049" ry="2.121" transform="matrix(0.008, -1, 1, 0.008, 212.182, 48.326)"/><ellipse class="l" cx="3.049" cy="2.121" rx="3.049" ry="2.121" transform="matrix(0.008, -1, 1, 0.008, 248.151, 82.448)"/><ellipse class="r" cx="3.049" cy="2.121" rx="3.049" ry="2.121" transform="matrix(0.008, -1, 1, 0.008, 232.982, 90.021)"/><ellipse class="m" cx="3.049" cy="2.121" rx="3.049" ry="2.121" transform="matrix(0.008, -1, 1, 0.008, 254.097, 104.019)"/></g><g transform="translate(18.753)"><path class="t" d="M0-44H375V0H0Z" transform="translate(16.247 44)"/><g transform="translate(0 12.296)"><g transform="translate(-33 -95)"><g transform="translate(405.272 97.333)"><g class="u" transform="translate(0 0)"><path class="v" d="M2.667,0H19.333C20.806,0,22,1.473,22,3.289v7.4h0c0,1.817-1.194,3.289-2.667,3.289H2.667C1.194,13.979,0,12.506,0,10.69v-7.4H0C0,1.473,1.194,0,2.667,0Z"/></g><g class="w" transform="translate(23 4.989)"><path class="x" d="M354-28h11.328v14H354Z" transform="translate(-359 23)"/></g><g class="y" transform="translate(2 3.323)"><path d="M333-29.667h28v17.333H333Z" transform="translate(-338 24.667)"/></g></g><g transform="translate(384.966 97.331)"><g class="z"><path d="M310.694-31.669h25.272V-10.7H310.694Z" transform="translate(-315.694 26.669)"/></g></g><g transform="translate(362.939 98.989)"><g class="aa"><path d="M288.667-31.333h27v20.667h-27Z" transform="translate(-293.667 26.333)"/></g></g><g transform="translate(33 95)"><path class="b" d="M21-16.354H75V-35H21Z" transform="translate(-21 35)"/><path d="M16.433,13.239c2.509,0,4-1.962,4-5.284a6.336,6.336,0,0,0-.7-3.117A3.5,3.5,0,0,0,16.487,2.89a3.43,3.43,0,0,0-3.664,3.466A3.159,3.159,0,0,0,16.07,9.637,2.727,2.727,0,0,0,18.627,8.16h.116c0,2.256-.854,3.6-2.3,3.6a1.716,1.716,0,0,1-1.729-1.21H12.96A3.324,3.324,0,0,0,16.433,13.239Zm.062-5A1.865,1.865,0,0,1,14.553,6.3a1.948,1.948,0,1,1,3.9.027A1.874,1.874,0,0,1,16.494,8.235Zm7.038,3.719a1.08,1.08,0,1,0-1.094-1.08A1.048,1.048,0,0,0,23.532,11.954Zm0-5.127a1.043,1.043,0,0,0,1.094-1.073,1.094,1.094,0,0,0-2.187,0A1.047,1.047,0,0,0,23.532,6.827ZM31.445,13h1.688V11.161h1.333V9.671H33.134V3.136H30.646c-1.743,2.625-3.131,4.819-4.02,6.453v1.572h4.819ZM28.26,9.609c1.148-2.023,2.174-3.644,3.117-5.038h.1V9.712H28.26ZM38.511,13h1.764V3.136H38.518L35.94,4.94v1.7l2.454-1.723h.116Z" transform="translate(0 4.645)"/></g></g></g></g></g></g></svg>